HIERARCHY
ROOT hip
{
  OFFSET 0 0 0
  CHANNELS 6 Xposition Yposition Zposition Zrotation Yrotation Xrotation
  JOINT abdomen
  {
    OFFSET 0 20.6881 -0.73152
    CHANNELS 3 Zrotation Xrotation Yrotation
    JOINT chest
    {
      OFFSET 0 11.7043 -0.48768
      CHANNELS 3 Zrotation Xrotation Yrotation
      JOINT neck
      {
        OFFSET 0 22.1894 -2.19456
        CHANNELS 3 Zrotation Xrotation Yrotation
        JOINT head
        {
          OFFSET -0.24384 7.07133 1.2192
          CHANNELS 3 Zrotation Xrotation Yrotation
          JOINT leftEye
          {
            OFFSET 4.14528 8.04674 8.04672
            CHANNELS 3 Zrotation Xrotation Yrotation
            End Site
            {
              OFFSET 1 0 0
            }
          }
          JOINT rightEye
          {
            OFFSET -3.6576 8.04674 8.04672
            CHANNELS 3 Zrotation Xrotation Yrotation
            End Site
            {
              OFFSET 1 0 0
            }
          }
        }
      }
      JOINT rCollar
      {
        OFFSET -2.68224 19.2634 -4.8768
        CHANNELS 3 Zrotation Xrotation Yrotation
        JOINT rShldr
        {
          OFFSET -8.77824 -1.95073 1.46304
          CHANNELS 3 Zrotation Xrotation Yrotation
          JOINT rForeArm
          {
            OFFSET -28.1742 -1.7115 0.48768
            CHANNELS 3 Zrotation Xrotation Yrotation
            JOINT rHand
            {
              OFFSET -22.5879 0.773209 7.07136
              CHANNELS 3 Zrotation Xrotation Yrotation
              JOINT rThumb1
              {
                OFFSET -1.2192 -0.487915 3.41376
                CHANNELS 3 Zrotation Xrotation Yrotation
                JOINT rThumb2
                {
                  OFFSET -3.37035 -0.52449 3.41376
                  CHANNELS 3 Zrotation Xrotation Yrotation
                  End Site
                  {
                    OFFSET -1.78271 -1.18214 1.43049
                  }
                }
              }
              JOINT rIndex1
              {
                OFFSET -7.75947 0.938293 5.60832
                CHANNELS 3 Zrotation Xrotation Yrotation
                JOINT rIndex2
                {
                  OFFSET -2.54057 -0.884171 1.56538
                  CHANNELS 3 Zrotation Xrotation Yrotation
                  End Site
                  {
                    OFFSET -1.62519 -0.234802 1.16502
                  }
                }
              }
              JOINT rMid1
              {
                OFFSET -8.24714 1.18213 3.41376
                CHANNELS 3 Zrotation Xrotation Yrotation
                JOINT rMid2
                {
                  OFFSET -3.10165 -0.590103 1.0647
                  CHANNELS 3 Zrotation Xrotation Yrotation
                  End Site
                  {
                    OFFSET -2.48547 -0.328903 0.83742
                  }
                }
              }
              JOINT rRing1
              {
                OFFSET -8.82822 0.546677 1.51678
                CHANNELS 3 Zrotation Xrotation Yrotation
                JOINT rRing2
                {
                  OFFSET -2.60934 -0.819778 -0.0198488
                  CHANNELS 3 Zrotation Xrotation Yrotation
                  End Site
                  {
                    OFFSET -2.33842 -0.294052 0.168128
                  }
                }
              }
              JOINT rPinky1
              {
                OFFSET -8.27202 -0.0477905 -0.4584
                CHANNELS 3 Zrotation Xrotation Yrotation
                JOINT rPinky2
                {
                  OFFSET -1.82734 -0.647385 -0.700984
                  CHANNELS 3 Zrotation Xrotation Yrotation
                  End Site
                  {
                    OFFSET -1.69225 -0.51767 -0.607171
                  }
                }
              }
            }
          }
        }
      }
      JOINT lCollar
      {
        OFFSET 2.68224 19.2634 -4.8768
        CHANNELS 3 Zrotation Xrotation Yrotation
        JOINT lShldr
        {
          OFFSET 8.77824 -1.95073 1.46304
          CHANNELS 3 Zrotation Xrotation Yrotation
          JOINT lForeArm
          {
            OFFSET 28.1742 -1.7115 0.48768
            CHANNELS 3 Zrotation Xrotation Yrotation
            JOINT lHand
            {
              OFFSET 22.5879 0.773209 7.07136
              CHANNELS 3 Zrotation Xrotation Yrotation
              JOINT lThumb1
              {
                OFFSET 1.2192 -0.487915 3.41376
                CHANNELS 3 Zrotation Xrotation Yrotation
                JOINT lThumb2
                {
                  OFFSET 3.37035 -0.52449 3.41376
                  CHANNELS 3 Zrotation Xrotation Yrotation
                  End Site
                  {
                    OFFSET 1.78271 -1.18214 1.43049
                  }
                }
              }
              JOINT lIndex1
              {
                OFFSET 7.75947 0.938293 5.60832
                CHANNELS 3 Zrotation Xrotation Yrotation
                JOINT lIndex2
                {
                  OFFSET 2.54057 -0.884171 1.56538
                  CHANNELS 3 Zrotation Xrotation Yrotation
                  End Site
                  {
                    OFFSET 1.62519 -0.234802 1.16502
                  }
                }
              }
              JOINT lMid1
              {
                OFFSET 8.24714 1.18213 3.41376
                CHANNELS 3 Zrotation Xrotation Yrotation
                JOINT lMid2
                {
                  OFFSET 3.10165 -0.590103 1.0647
                  CHANNELS 3 Zrotation Xrotation Yrotation
                  End Site
                  {
                    OFFSET 2.48547 -0.328903 0.83742
                  }
                }
              }
              JOINT lRing1
              {
                OFFSET 8.82822 0.546677 1.51678
                CHANNELS 3 Zrotation Xrotation Yrotation
                JOINT lRing2
                {
                  OFFSET 2.60934 -0.819778 -0.0198488
                  CHANNELS 3 Zrotation Xrotation Yrotation
                  End Site
                  {
                    OFFSET 2.33842 -0.294052 0.168128
                  }
                }
              }
              JOINT lPinky1
              {
                OFFSET 8.27202 -0.0477905 -0.4584
                CHANNELS 3 Zrotation Xrotation Yrotation
                JOINT lPinky2
                {
                  OFFSET 1.82734 -0.647385 -0.700984
                  CHANNELS 3 Zrotation Xrotation Yrotation
                  End Site
                  {
                    OFFSET 1.69225 -0.51767 -0.607171
                  }
                }
              }
            }
          }
        }
      }
    }
  }
  JOINT rButtock
  {
    OFFSET -8.77824 4.35084 1.2192
    CHANNELS 3 Zrotation Xrotation Yrotation
    JOINT rThigh
    {
      OFFSET 0 -1.70687 -2.19456
      CHANNELS 3 Zrotation Xrotation Yrotation
      JOINT rShin
      {
        OFFSET 0 -36.8199 0.73152
        CHANNELS 3 Zrotation Xrotation Yrotation
        JOINT rFoot
        {
          OFFSET 0.73152 -45.1104 -5.12064
          CHANNELS 3 Zrotation Xrotation Yrotation
          End Site
          {
            OFFSET -1.1221 -3.69964 12.103
          }
        }
      }
    }
  }
  JOINT lButtock
  {
    OFFSET 8.77824 4.35084 1.2192
    CHANNELS 3 Zrotation Xrotation Yrotation
    JOINT lThigh
    {
      OFFSET 0 -1.70687 -2.19456
      CHANNELS 3 Zrotation Xrotation Yrotation
      JOINT lShin
      {
        OFFSET 0 -36.8199 0.73152
        CHANNELS 3 Zrotation Xrotation Yrotation
        JOINT lFoot
        {
          OFFSET -0.73152 -45.1104 -5.12064
          CHANNELS 3 Zrotation Xrotation Yrotation
          End Site
          {
            OFFSET 1.1221 -3.69964 12.103
          }
        }
      }
    }
  }
}
MOTION
Frames:	4
Frame Time:	0.03333
0.035478174686431885 62.46209740638733 0.07275175303220749 -4.4653520584106445 2.0411086082458496 3.6492178440093994 -2.5067620277404785 15.21259593963623 3.937842845916748 2.7031850814819336 -9.86676025390625 1.290177822113037 -5.1042633056640625 14.99906063079834 -3.586031436920166 8.854955673217773 -24.215303421020508 -4.8749308586120605 -0.08357984572649002 -0.03246617689728737 0.013220272958278656 0.03902376815676689 0.023860473185777664 -0.0006052335374988616 -0.05233751982450485 -0.04909056797623634 -0.0381583571434021 41.66633987426758 34.91926956176758 19.484678268432617 -28.574262619018555 -28.95469093322754 64.01387786865234 -0.18913979828357697 -13.201810836791992 -2.0160255432128906 0.025664856657385826 -0.09344819188117981 -0.0769014060497284 -0.056604914367198944 -0.029306013137102127 0.034071050584316254 -0.0011098217219114304 0.00349895260296762 0.009482350200414658 7.666625022888184 5.408743858337402 0.3968702554702759 0.006757612340152264 0.013437065295875072 -0.002678012941032648 2.9529788494110107 0.9689089059829712 0.11060434579849243 0.06805353611707687 -0.004030405078083277 -0.006300563458353281 10.208508491516113 0.6339057087898254 0.0671052411198616 0.014520092867314816 -0.07563243061304092 -0.013479402288794518 2.2088422775268555 -0.7810787558555603 -0.2186146080493927 -0.015744689851999283 0.07707949727773666 -0.014908039011061192 -47.960567474365234 37.515987396240234 -29.86490821838379 27.9647159576416 -27.207843780517578 -61.360450744628906 0.24645765125751495 -14.815598487854004 2.1676762104034424 0.06099700927734375 -0.03246031701564789 -0.04380153864622116 -0.006164720747619867 -0.020282350480556488 0.010883962735533714 0.0804162546992302 0.011148116551339626 0.028957249596714973 -7.714950084686279 5.566126823425293 -0.45631974935531616 0.040749747306108475 0.049719907343387604 -0.06463482230901718 -2.8594706058502197 0.9303752183914185 -0.1304875612258911 0.022147662937641144 -0.0362856425344944 -0.05215206742286682 -10.292499542236328 0.6427671909332275 -0.029061656445264816 -0.04324652999639511 -0.0020230552181601524 0.008302559144794941 -2.112539529800415 -0.6874099373817444 0.13192355632781982 0.054995764046907425 -0.15603797137737274 -0.06410869210958481 -25.242162704467773 -40.18380355834961 -20.87620735168457 -1.4589368104934692 65.54156494140625 2.4467673301696777 -3.682021141052246 -10.87844467163086 -9.715845108032227 0.010446182452142239 -0.1422681361436844 0.03454791381955147 29.956785202026367 -39.40498352050781 23.070287704467773 1.384117841720581 65.33710479736328 -2.529965400695801 4.254237174987793 -11.086628913879395 13.768684387207031
-0.07563671097159386 63.272517919540405 -0.19866786897182465 -3.8073670864105225 0.10980906337499619 4.49057674407959 -2.801248073577881 14.094378471374512 3.656186819076538 2.994709014892578 -9.493000030517578 1.1130367517471313 -5.29193115234375 14.855990409851074 -4.034157752990723 8.732694625854492 -23.750036239624023 -6.168756008148193 -0.038465093821287155 -0.1305076777935028 -0.22908218204975128 -0.011373402550816536 0.08728159219026566 -0.09042748063802719 -0.02729884721338749 -0.1179942712187767 -0.19043675065040588 45.10374450683594 36.78312301635742 17.906780242919922 -26.842525482177734 -27.375232696533203 64.63511657714844 -0.01855653151869774 -10.967071533203125 -1.3421074151992798 0.057545680552721024 0.008058990351855755 -0.09913058578968048 -0.059434302151203156 0.05287989228963852 -0.06682103127241135 0.06958318501710892 -0.09361151605844498 0.13839444518089294 7.557215213775635 5.4250688552856445 0.4028078615665436 0.023779448121786118 0.015216718427836895 0.08493408560752869 2.796113967895508 1.102986454963684 -0.027044598013162613 -0.11148037016391754 -0.0011630853405222297 0.004530460108071566 10.20650863647461 0.7278459072113037 0.08567561954259872 0.010881489142775536 -0.041163425892591476 0.14454646408557892 2.038588285446167 -0.8139511942863464 -0.19206266105175018 0.07796933501958847 0.08650530129671097 -0.17553307116031647 -51.92536926269531 39.31756591796875 -28.108596801757812 26.418193817138672 -25.763446807861328 -61.57984924316406 0.14281442761421204 -12.191459655761719 1.7332305908203125 0.07779225707054138 -0.017558390274643898 0.00439812894910574 0.020824050530791283 0.14295831322669983 -0.0004912857548333704 0.10103216022253036 0.021580323576927185 0.02546713687479496 -7.581425666809082 5.376603603363037 -0.4760535955429077 0.07165107131004333 0.04183093458414078 -0.17419061064720154 -2.8860864639282227 0.9376612305641174 0.030943170189857483 0.1104063019156456 -0.0779060572385788 0.0037815074902027845 -10.302210807800293 0.6702083945274353 -0.08152133971452713 -0.013555159792304039 -0.0307296272367239 0.09887899458408356 -2.323819160461426 -0.6510797142982483 0.14127227663993835 0.13701817393302917 0.15890102088451385 -0.06526000797748566 -23.9224796295166 -40.2938232421875 -19.154218673706055 -1.730344533920288 65.47440338134766 2.7241079807281494 -3.178687572479248 -10.636649131774902 -9.795552253723145 0.0026273124385625124 -0.12726803123950958 0.10433964431285858 28.781387329101562 -39.215782165527344 21.296981811523438 1.1903132200241089 66.11673736572266 -2.5459463596343994 4.580346584320068 -10.712935447692871 14.194602966308594
-0.06363457068800926 63.74666690826416 -0.5122564733028412 -4.703458786010742 -13.078269958496094 5.217954635620117 -0.49901556968688965 16.442184448242188 4.8630828857421875 2.4754998683929443 -10.026177406311035 1.704531192779541 -5.085636138916016 13.216968536376953 -2.91430401802063 8.17602252960205 -26.986204147338867 -2.74001145362854 -0.14545688033103943 0.1997031420469284 -0.03909963741898537 0.3944312632083893 0.19342975318431854 -0.1509293019771576 -0.20195484161376953 0.0710364282131195 -0.22184477746486664 18.366254806518555 33.79997253417969 50.63477325439453 -28.65513801574707 -31.6885929107666 69.06963348388672 -1.3477851152420044 -37.47981643676758 -5.41093111038208 0.3464934527873993 -0.185017392039299 -0.31724515557289124 -0.14825595915317535 0.04983028024435043 -0.08262142539024353 0.24167679250240326 0.016611184924840927 0.3436451852321625 7.596970558166504 5.47205924987793 0.5254729390144348 -0.08232226967811584 0.08191473037004471 -0.24768559634685516 2.983205556869507 0.8984513878822327 -0.22543832659721375 -0.06748659908771515 -0.2784078121185303 -0.09036393463611603 10.039329528808594 0.34183377027511597 -0.112702876329422 0.0214347243309021 0.12350508570671082 0.13521438837051392 1.6970746517181396 -0.9610389471054077 -0.3511665165424347 0.010395526885986328 0.32844963669776917 -0.36981436610221863 -26.895092010498047 25.873708724975586 -64.75139617919922 25.973329544067383 -23.094085693359375 -55.09413146972656 0.21954244375228882 9.595227241516113 -1.45339834690094 -0.006198375951498747 -0.14762206375598907 0.3866424858570099 -0.20927609503269196 0.0805526152253151 -0.06231771036982536 0.37711283564567566 -0.1925586462020874 0.29716721177101135 -7.213075637817383 5.457109451293945 -0.6244890093803406 0.10511448979377747 0.20734551548957825 -0.20560666918754578 -3.1318159103393555 0.9468433260917664 -0.05710778757929802 -0.12677881121635437 0.26859456300735474 0.00740049360319972 -10.579093933105469 0.4667985737323761 -0.09578874707221985 -0.06642003357410431 -0.12360168248414993 0.17369692027568817 -1.9069161415100098 -0.3616108000278473 -0.19071003794670105 0.09310392290353775 -0.2400933802127838 -0.332035630941391 -10.662849426269531 -40.5210075378418 -12.682994842529297 -1.4516654014587402 69.70610809326172 2.089822292327881 -7.408292770385742 -13.054648399353027 -20.557228088378906 -0.04706443473696709 -0.4586276412010193 -0.02443043887615204 23.2604923248291 -50.070716857910156 21.871992111206055 1.423144817352295 68.69773864746094 -2.2844982147216797 3.8733458518981934 -4.79306697845459 13.871940612792969
-0.6040572188794613 70.96964120864868 -2.554704062640667 0.6534835696220398 -8.062637329101562 7.106254577636719 -2.072465181350708 16.915653228759766 4.253273963928223 3.370698928833008 -10.15725326538086 1.5628172159194946 -7.942345142364502 13.634705543518066 -8.900044441223145 11.200118064880371 -30.556339263916016 -14.501580238342285 -0.11017420887947083 -0.44868892431259155 -0.2596800625324249 0.10955508798360825 0.38914287090301514 -0.36906808614730835 0.8714043498039246 0.2537689805030823 -0.7435898184776306 7.706412315368652 12.667076110839844 83.14946746826172 -28.971506118774414 -34.031341552734375 72.39083862304688 -2.1300740242004395 -49.5120849609375 -6.578733921051025 0.6118314862251282 0.10212350636720657 -0.7566819190979004 0.42830052971839905 -0.47255924344062805 -0.12381382286548615 -0.2726997435092926 -0.36678552627563477 -0.13902521133422852 8.361727714538574 5.594799518585205 0.125919371843338 0.785568118095398 0.7267792820930481 -0.8034335374832153 1.9019529819488525 0.7402586936950684 -0.9702214598655701 -0.9178409576416016 0.0008795722387731075 -0.5168953537940979 10.336398124694824 0.4806351959705353 -0.7536443471908569 0.3461272418498993 -0.12978984415531158 -0.1518065482378006 1.177819013595581 -1.1693729162216187 -0.31439703702926636 -0.2198680341243744 0.21361187100410461 0.38378340005874634 -15.342381477355957 25.336929321289062 -89.4912338256836 24.37329864501953 -21.68460464477539 -54.06021499633789 0.5814846754074097 18.1375675201416 -3.0167994499206543 0.1745438575744629 -0.4268266558647156 0.5472851991653442 0.5809066295623779 0.27645134925842285 -0.1586584448814392 0.1436222940683365 0.07171380519866943 0.3377227783203125 -6.6632890701293945 6.038486480712891 -0.44759583473205566 0.24587854743003845 0.7206444144248962 -0.4329849183559418 -3.20635986328125 0.7339934706687927 0.2490861862897873 0.027668125927448273 -0.08189422637224197 -0.21487164497375488 -10.317024230957031 0.8268710374832153 -0.5017104744911194 0.5790462493896484 -0.6131777167320251 0.856204092502594 -2.6692943572998047 -0.36704811453819275 -0.30077964067459106 0.5586271286010742 0.5622734427452087 0.5353238582611084 -0.11369477212429047 -42.64846420288086 -9.591773986816406 -1.0985713005065918 70.46502685546875 2.20200777053833 -8.45854377746582 -10.438896179199219 -24.426523208618164 0.06706121563911438 -0.8915736079216003 0.30067726969718933 7.4183244705200195 -51.437156677246094 9.760923385620117 0.8052560091018677 69.06582641601562 -1.3250457048416138 4.110166072845459 0.9764928817749023 15.919682502746582
